<svg xmlns="http://www.w3.org/2000/svg" viewBox="0 0 512 512">
  <defs>
    <!-- Gradient for cabinet body -->
    <linearGradient id="cabinetGrad" x1="0%" y1="0%" x2="100%" y2="100%">
      <stop offset="0%" style="stop-color:#6366f1"/>
      <stop offset="100%" style="stop-color:#4f46e5"/>
    </linearGradient>
    <!-- Gradient for drawers -->
    <linearGradient id="drawerGrad" x1="0%" y1="0%" x2="0%" y2="100%">
      <stop offset="0%" style="stop-color:#818cf8"/>
      <stop offset="100%" style="stop-color:#6366f1"/>
    </linearGradient>
    <!-- Glow effect -->
    <filter id="glow">
      <feGaussianBlur stdDeviation="2" result="coloredBlur"/>
      <feMerge>
        <feMergeNode in="coloredBlur"/>
        <feMergeNode in="SourceGraphic"/>
      </feMerge>
    </filter>
  </defs>

  <!-- Background circle -->
  <circle cx="256" cy="256" r="240" fill="url(#cabinetGrad)"/>

  <!-- Cabinet body -->
  <rect x="96" y="96" width="320" height="320" rx="24" ry="24" fill="#1e1b4b" opacity="0.3"/>
  <rect x="112" y="112" width="288" height="288" rx="16" ry="16" fill="#1e1b4b"/>

  <!-- Top drawer -->
  <rect x="136" y="136" width="240" height="72" rx="8" ry="8" fill="url(#drawerGrad)"/>
  <rect x="216" y="164" width="80" height="16" rx="8" ry="8" fill="#c7d2fe"/>

  <!-- Middle drawer -->
  <rect x="136" y="220" width="240" height="72" rx="8" ry="8" fill="url(#drawerGrad)"/>
  <rect x="216" y="248" width="80" height="16" rx="8" ry="8" fill="#c7d2fe"/>

  <!-- Bottom drawer -->
  <rect x="136" y="304" width="240" height="72" rx="8" ry="8" fill="url(#drawerGrad)"/>
  <rect x="216" y="332" width="80" height="16" rx="8" ry="8" fill="#c7d2fe"/>

  <!-- Binary decoration (representing "Byte") -->
  <g fill="#a5b4fc" font-family="monospace" font-size="18" font-weight="bold" opacity="0.6" filter="url(#glow)">
    <text x="144" y="158">01</text>
    <text x="336" y="158">10</text>
    <text x="144" y="242">10</text>
    <text x="336" y="242">01</text>
    <text x="144" y="326">01</text>
    <text x="336" y="326">11</text>
  </g>
</svg>
